<svg width="60" height="60" viewBox="0 0 60 60" fill="none" xmlns="http://www.w3.org/2000/svg">
<path d="M36.5625 24.6421C35.2716 24.6421 34.2188 25.603 34.2188 26.7843V33.2127C34.2188 34.394 35.2716 35.3568 36.5625 35.3568C37.8553 35.3568 38.9062 34.394 38.9062 33.2127V26.7843C38.9062 25.604 37.8553 24.6421 36.5625 24.6421ZM25.3125 24.6421C24.0216 24.6421 22.9688 25.603 22.9688 26.7843V33.2127C22.9688 34.394 24.0216 35.3568 25.3125 35.3568C26.6053 35.3568 27.6562 34.394 27.6562 33.2127V26.7843C27.6562 25.604 26.6053 24.6421 25.3125 24.6421Z" fill="#5E3AED"/>
<path d="M48.75 1.875H11.25C6.07219 1.875 1.875 6.07219 1.875 11.25V48.75C1.875 53.9278 6.07219 58.125 11.25 58.125H48.75C53.9278 58.125 58.125 53.9278 58.125 48.75V11.25C58.125 6.07219 53.9278 1.875 48.75 1.875ZM14.0625 35.3578C15.3553 35.3578 16.4062 34.395 16.4062 33.2138H18.75C18.75 35.5772 16.6481 37.5 14.0625 37.5C11.4787 37.5 9.375 35.5772 9.375 33.2138V26.7844C9.375 24.4219 11.4787 22.5 14.0625 22.5C16.6481 22.5 18.75 24.4228 18.75 26.7844H16.4062C16.4062 25.6031 15.3553 24.6422 14.0625 24.6422C12.7716 24.6422 11.7188 25.6031 11.7188 26.7844V33.2128C11.7188 34.395 12.7716 35.3578 14.0625 35.3578ZM30 33.2138C30 35.5772 27.8963 37.5 25.3125 37.5C22.7287 37.5 20.625 35.5772 20.625 33.2138V26.7844C20.625 24.4219 22.7287 22.5 25.3125 22.5C27.8963 22.5 30 24.4228 30 26.7844V33.2138ZM41.25 33.2138C41.25 35.5772 39.1463 37.5 36.5625 37.5C33.9769 37.5 31.875 35.5772 31.875 33.2138V26.7844C31.875 24.4219 33.9769 22.5 36.5625 22.5C39.1463 22.5 41.25 24.4228 41.25 26.7844V33.2138ZM50.625 37.5H43.125V22.5H45.2691V35.3578H50.625V37.5Z" fill="#5E3AED"/>
</svg>
