<svg width="16" height="14" viewBox="0 0 16 14" fill="none" xmlns="http://www.w3.org/2000/svg">
<path d="M0.978977 0.125H14.729C14.9316 0.125 15.1259 0.205481 15.2691 0.348738C15.4124 0.491995 15.4929 0.686293 15.4929 0.888889V13.1111C15.4929 13.3137 15.4124 13.508 15.2691 13.6513C15.1259 13.7945 14.9316 13.875 14.729 13.875H0.978977C0.776381 13.875 0.582083 13.7945 0.438826 13.6513C0.295569 13.508 0.215088 13.3137 0.215088 13.1111V0.888889C0.215088 0.686293 0.295569 0.491995 0.438826 0.348738C0.582083 0.205481 0.776381 0.125 0.978977 0.125ZM13.9651 3.36236L7.90898 8.78597L1.74287 3.34556V12.3472H13.9651V3.36236ZM2.13321 1.65278L7.90057 6.74181L13.5847 1.65278H2.13321Z" fill="#ACB4C3"/>
</svg>
