<svg width="16" height="16" viewBox="0 0 16 16" fill="none" xmlns="http://www.w3.org/2000/svg">
<path d="M7.85398 15.6391C3.63502 15.6391 0.215088 12.2192 0.215088 8.00022C0.215088 3.78126 3.63502 0.361328 7.85398 0.361328C12.0729 0.361328 15.4929 3.78126 15.4929 8.00022C15.4929 12.2192 12.0729 15.6391 7.85398 15.6391ZM7.85398 14.1113C9.47474 14.1113 11.0291 13.4675 12.1752 12.3214C13.3212 11.1754 13.9651 9.62099 13.9651 8.00022C13.9651 6.37945 13.3212 4.82506 12.1752 3.67901C11.0291 2.53295 9.47474 1.88911 7.85398 1.88911C6.23321 1.88911 4.67882 2.53295 3.53277 3.67901C2.38671 4.82506 1.74287 6.37945 1.74287 8.00022C1.74287 9.62099 2.38671 11.1754 3.53277 12.3214C4.67882 13.4675 6.23321 14.1113 7.85398 14.1113ZM4.03453 8.00022H5.56231C5.56231 8.608 5.80375 9.1909 6.23352 9.62067C6.66329 10.0504 7.24619 10.2919 7.85398 10.2919C8.46176 10.2919 9.04466 10.0504 9.47443 9.62067C9.9042 9.1909 10.1456 8.608 10.1456 8.00022H11.6734C11.6734 9.0132 11.271 9.98469 10.5547 10.701C9.83845 11.4173 8.86696 11.8197 7.85398 11.8197C6.841 11.8197 5.86951 11.4173 5.15322 10.701C4.43694 9.98469 4.03453 9.0132 4.03453 8.00022Z" fill="#ACB4C3"/>
</svg>
