<svg width="60" height="60" viewBox="0 0 60 60" fill="none" xmlns="http://www.w3.org/2000/svg">
<path d="M37.5 55.0175H12.5V50.0175H37.5V55.0175ZM55 10L43.1625 24.8875L42.6125 25.5625L28.5375 43.5375C28.0729 44.0021 27.5214 44.3706 26.9145 44.622C26.3075 44.8734 25.657 45.0028 25 45.0028C24.343 45.0028 23.6925 44.8734 23.0855 44.622C22.4785 44.3706 21.927 44.0021 21.4625 43.5375C20.9979 43.073 20.6294 42.5214 20.378 41.9145C20.1266 41.3075 19.9972 40.657 19.9972 40C19.9972 39.343 20.1266 38.6925 20.378 38.0855C20.6294 37.4786 20.9979 36.9271 21.4625 36.4625L55 10ZM6.6125 18.085C3.00063 23.8686 1.70177 30.8012 2.975 37.5H5V35C4.97513 30.0778 6.44874 25.2646 9.225 21.2L6.6125 18.085ZM30 5C26.1766 4.99978 22.3954 5.79975 18.8997 7.34848C15.404 8.8972 12.2711 11.1604 9.7025 13.9925L12.5625 17.4C15.9566 14.2797 20.3897 12.5332 25 12.5C29.6353 12.5318 34.0912 14.2956 37.4925 17.445L46.3675 10.44C41.6412 6.90878 35.8998 5.00052 30 5ZM47.075 28L46.4925 28.7175L44.6725 31.0425C44.8864 32.3509 44.9959 33.6742 45 35V37.5H57.025C58.2111 31.2435 57.1645 24.7691 54.0675 19.205L47.075 28Z" fill="#5E3AED"/>
</svg>
