<svg width="60" height="60" viewBox="0 0 60 60" fill="none" xmlns="http://www.w3.org/2000/svg">
<path d="M26.25 32.5V36.25C26.25 36.9583 26.49 37.5525 26.97 38.0325C27.45 38.5125 28.0433 38.7517 28.75 38.75H31.25C31.9583 38.75 32.5525 38.51 33.0325 38.03C33.5125 37.55 33.7517 36.9567 33.75 36.25V32.5H37.5C38.2083 32.5 38.8025 32.26 39.2825 31.78C39.7625 31.3 40.0017 30.7067 40 30V27.5C40 26.7917 39.76 26.1983 39.28 25.72C38.8 25.2417 38.2067 25.0017 37.5 25H33.75V21.25C33.75 20.5417 33.51 19.9483 33.03 19.47C32.55 18.9917 31.9567 18.7517 31.25 18.75H28.75C28.0417 18.75 27.4483 18.99 26.97 19.47C26.4917 19.95 26.2517 20.5433 26.25 21.25V25H22.5C21.7917 25 21.1983 25.24 20.72 25.72C20.2417 26.2 20.0017 26.7933 20 27.5V30C20 30.7083 20.24 31.3025 20.72 31.7825C21.2 32.2625 21.7933 32.5017 22.5 32.5H26.25ZM30 54.75C29.7083 54.75 29.4375 54.7292 29.1875 54.6875C28.9375 54.6458 28.6875 54.5833 28.4375 54.5C22.8125 52.625 18.3333 49.1558 15 44.0925C11.6667 39.0292 10 33.5817 10 27.75V15.9375C10 14.8958 10.3025 13.9583 10.9075 13.125C11.5125 12.2917 12.2933 11.6875 13.25 11.3125L28.25 5.6875C28.8333 5.47917 29.4167 5.375 30 5.375C30.5833 5.375 31.1667 5.47917 31.75 5.6875L46.75 11.3125C47.7083 11.6875 48.49 12.2917 49.095 13.125C49.7 13.9583 50.0017 14.8958 50 15.9375V27.75C50 33.5833 48.3333 39.0317 45 44.095C41.6667 49.1583 37.1875 52.6267 31.5625 54.5C31.3125 54.5833 31.0625 54.6458 30.8125 54.6875C30.5625 54.7292 30.2917 54.75 30 54.75Z" fill="#5E3AED"/>
</svg>
